 <svg  version="1.0" xmlns="http://www.w3.org/2000/svg"  width="300.000000pt" height="251.000000pt" viewBox="0 0 300.000000 251.000000"  preserveAspectRatio="xMidYMid meet">  <g transform="translate(0.000000,251.000000) scale(0.100000,-0.100000)" fill="#ffffff" stroke="none"> <path d="M1515 2136 c-39 -18 -90 -72 -108 -116 -25 -61 -29 -112 -13 -187 17 -81 42 -136 97 -209 l38 -52 -65 -32 c-181 -89 -286 -274 -256 -449 14 -80 46 -144 94 -187 31 -28 46 -34 83 -34 38 0 51 6 86 37 22 20 47 50 56 66 l15 29 31 -37 c42 -51 147 -97 147 -65 0 6 -7 10 -15 10 -25 0 -83 59 -109 111 l-24 50 19 67 c26 90 25 162 -2 196 -25 31 -59 34 -85 5 -25 -28 -22 -142 5 -244 l21 -76 -30 -44 c-65 -94 -125 -111 -179 -50 -79 90 -83 310 -7 439 33 57 108 124 184 164 53 28 61 30 73 16 7 -8 52 -42 99 -75 156 -106 192 -155 211 -282 8 -55 8 -88 0 -128 -11 -53 -22 -76 -115 -234 -26 -44 -50 -93 -53 -108 -3 -15 -8 -26 -12 -24 -84 45 -148 67 -220 77 -277 37 -628 -94 -711 -265 -58 -120 11 -232 168 -274 61 -17 224 -15 312 4 92 19 149 37 263 82 l88 35 102 -40 c178 -69 406 -110 545 -98 105 10 195 40 226 76 60 72 37 185 -49 239 -68 43 -130 55 -259 48 -141 -7 -247 -37 -423 -122 l-132 -63 -78 42 c-43 23 -98 56 -123 73 -50 34 -81 44 -86 28 -4 -13 96 -85 174 -124 34 -17 62 -35 62 -39 0 -9 -199 -83 -290 -108 -46 -13 -102 -18 -190 -19 -119 0 -127 1 -176 28 -61 34 -89 69 -106 130 -11 41 -9 49 16 101 23 46 41 66 97 106 78 54 196 101 320 126 200 40 459 -19 459 -105 0 -29 14 -42 38 -34 9 4 11 18 6 54 -6 48 -5 53 60 159 102 166 119 210 124 311 9 182 -52 278 -260 409 -38 23 -68 45 -68 48 0 4 18 18 39 31 46 28 102 99 132 166 18 41 21 62 17 140 -3 82 -7 99 -34 141 -51 83 -147 116 -229 80z m170 -68 c92 -100 59 -321 -63 -429 -25 -21 -48 -36 -53 -33 -23 14 -95 134 -115 193 -43 120 -25 225 47 285 30 25 39 28 92 24 53 -4 64 -8 92 -40z m-115 -754 c17 -44 10 -194 -10 -194 -19 0 -40 197 -23 213 12 13 24 7 33 -19z m796 -782 c127 -66 137 -202 19 -262 -46 -23 -60 -25 -180 -25 -147 0 -239 17 -404 72 -178 59 -176 52 -31 121 206 97 304 123 455 119 79 -3 109 -8 141 -25z"/> </g> </svg> 